<?xml version="1.0" standalone="no"?>
<!DOCTYPE svg PUBLIC "-//W3C//DTD SVG 20010904//EN"
 "http://www.w3.org/TR/2001/REC-SVG-20010904/DTD/svg10.dtd">
<svg version="1.0" xmlns="http://www.w3.org/2000/svg"
 width="512.000000pt" height="512.000000pt" viewBox="0 0 512.000000 512.000000"
 preserveAspectRatio="xMidYMid meet">

<g transform="translate(0.000000,512.000000) scale(0.100000,-0.100000)"
fill="#000000" stroke="none">
<path d="M4857 5110 c-53 -16 -93 -58 -137 -142 -24 -46 -61 -107 -82 -136
-78 -105 -228 -206 -373 -248 -56 -17 -163 -19 -1520 -24 -1576 -7 -1499 -5
-1685 -60 -431 -128 -808 -495 -1007 -981 -36 -87 -47 -127 -47 -169 -1 -115
87 -200 207 -200 33 0 114 39 140 67 9 11 33 60 53 108 163 405 423 679 744
784 111 37 239 51 468 51 l212 0 0 -24 c0 -162 -87 -1302 -126 -1646 -120
-1071 -328 -1772 -596 -2005 -58 -50 -117 -75 -202 -86 -86 -11 -139 -44 -173
-108 -47 -89 -19 -196 66 -256 40 -28 49 -30 129 -29 404 3 715 362 921 1064
143 485 241 1112 311 1995 20 251 70 1012 70 1066 l0 29 963 0 c795 0 979 3
1060 15 294 44 568 215 735 458 59 86 117 203 127 258 25 136 -121 260 -258
219z"/>
<path d="M3420 3597 c-49 -16 -104 -75 -118 -128 -7 -24 -37 -359 -67 -744
-31 -385 -71 -882 -90 -1104 -19 -221 -35 -462 -35 -535 0 -558 242 -948 656
-1057 223 -58 539 -22 755 87 85 42 213 139 275 207 158 173 272 432 309 704
26 185 0 254 -114 305 -83 38 -191 4 -240 -76 -15 -24 -27 -69 -36 -138 -21
-151 -50 -251 -102 -358 -62 -124 -172 -239 -278 -289 -151 -72 -356 -89 -507
-41 -134 41 -233 170 -284 368 -43 163 -43 319 0 802 19 223 61 724 92 1114
62 792 63 767 -6 836 -54 54 -132 72 -210 47z"/>
</g>
</svg>
