<svg width="29" height="35" viewBox="0 0 29 35" fill="none" xmlns="http://www.w3.org/2000/svg">
<rect x="16.0602" y="11" width="1.5" height="28" rx="0.75" transform="rotate(35 16.0602 11)" fill="black"/>
<rect x="0.00012207" y="11.8599" width="1.5" height="28" rx="0.75" transform="rotate(-35 0.00012207 11.8599)" fill="black"/>
<path d="M21.3516 5.80078L21.2285 5.82422C21.1426 5.82422 21.082 5.76562 21.0469 5.64844C21.0352 5.61719 21.0293 5.57227 21.0293 5.51367C21.0293 5.45508 21.0625 5.38281 21.1289 5.29688C21.1953 5.21094 21.2812 5.13672 21.3867 5.07422C21.6211 4.92969 21.8691 4.85742 22.1309 4.85742C22.3379 4.85742 22.4863 4.88672 22.5762 4.94531C22.752 5.05469 22.8887 5.27734 22.9863 5.61328L24.7734 10.7988C25.1406 9.98242 25.3926 9.4043 25.5293 9.06445L25.8867 8.15625C26.2188 7.26562 26.3848 6.68555 26.3848 6.41602C26.3848 6.14258 26.3379 5.94336 26.2441 5.81836C26.1504 5.69336 25.9883 5.61914 25.7578 5.5957C25.7148 5.54883 25.6934 5.48633 25.6934 5.4082C25.6934 5.32617 25.7285 5.25195 25.7988 5.18555C25.873 5.11523 25.9688 5.05469 26.0859 5.00391C26.3242 4.90625 26.5684 4.85742 26.8184 4.85742C27.0723 4.85742 27.252 4.87109 27.3574 4.89844C27.4629 4.92188 27.5469 4.96289 27.6094 5.02148C27.7305 5.13086 27.791 5.33398 27.791 5.63086C27.791 5.89648 27.582 6.59766 27.1641 7.73438C26.7734 8.75 26.4805 9.48633 26.2852 9.94336C25.5664 11.5449 25.0254 12.666 24.6621 13.3066C24.2988 13.9473 23.9551 14.3906 23.6309 14.6367C23.3066 14.8867 22.9648 15.0117 22.6055 15.0117C22.2461 15.0117 21.9746 14.9336 21.791 14.7773C21.6074 14.625 21.5156 14.4141 21.5156 14.1445C21.5156 13.9414 21.5664 13.7891 21.668 13.6875C21.8594 13.4961 22.0625 13.4219 22.2773 13.4648C22.3125 13.7578 22.4883 13.9043 22.8047 13.9043C23.0898 13.9043 23.3457 13.7188 23.5723 13.3477C23.6777 13.1719 23.7812 12.9668 23.8828 12.7324L24.2227 11.9766L24.3398 11.7363C24.1133 11.7051 23.9219 11.5938 23.7656 11.4023C23.7031 11.3281 23.6523 11.2344 23.6133 11.1211L21.9727 6.81445L21.832 6.46875C21.6523 6.02344 21.4922 5.80078 21.3516 5.80078Z" fill="black"/>
</svg>
